<svg width="32" height="32" viewBox="0 0 32 32" fill="none" xmlns="http://www.w3.org/2000/svg">
<path d="M15.9992 17.7353C15.8214 17.737 15.6465 17.6909 15.4926 17.602L3.71922 10.7847C3.49237 10.6486 3.32764 10.4292 3.26015 10.1735C3.19265 9.91767 3.22772 9.64563 3.35788 9.41532C3.42397 9.30088 3.51203 9.20063 3.617 9.12034C3.72197 9.04004 3.84177 8.98129 3.96953 8.94747C4.09728 8.91364 4.23046 8.9054 4.36141 8.92322C4.49235 8.94105 4.61849 8.98458 4.73255 9.05132L15.9992 15.5713L27.1992 9.09132C27.4297 8.9598 27.7026 8.92384 27.9593 8.99113C28.2161 9.05843 28.4362 9.22363 28.5725 9.45132C28.7041 9.68184 28.74 9.95471 28.6727 10.2114C28.6054 10.4682 28.4402 10.6883 28.2125 10.8247L16.5192 17.598C16.3579 17.6809 16.1804 17.7277 15.9992 17.7353Z" fill="#34404E"/>
<path d="M16 29.8121C15.7353 29.8103 15.482 29.7044 15.2948 29.5173C15.1077 29.3301 15.0017 29.0768 15 28.8121V16.7188C15.0017 16.4541 15.1077 16.2007 15.2948 16.0136C15.482 15.8264 15.7353 15.7205 16 15.7188C16.2647 15.7205 16.518 15.8264 16.7052 16.0136C16.8923 16.2007 16.9983 16.4541 17 16.7188V28.8121C16.9983 29.0768 16.8923 29.3301 16.7052 29.5173C16.518 29.7044 16.2647 29.8103 16 29.8121Z" fill="#34404E"/>
<path d="M16.0008 30.3308C14.8703 30.3499 13.7526 30.0888 12.7475 29.5708L5.6275 25.6108C4.62035 24.9895 3.78039 24.1314 3.18082 23.1112C2.58124 22.091 2.24023 20.9396 2.1875 19.7575L2.1875 12.2241C2.24182 11.0423 2.5835 9.89159 3.18292 8.87163C3.78235 7.85168 4.62145 6.99327 5.6275 6.3708L12.7475 2.42413C13.7591 1.92415 14.8724 1.66406 16.0008 1.66406C17.1293 1.66406 18.2425 1.92415 19.2542 2.42413L26.3742 6.38413C27.3813 7.0054 28.2213 7.86352 28.8209 8.88373C29.4204 9.90394 29.7614 11.0553 29.8142 12.2375V19.7708C29.7598 20.9526 29.4182 22.1033 28.8187 23.1233C28.2193 24.1433 27.3802 25.0017 26.3742 25.6241L19.2542 29.5708C18.2491 30.0888 17.1314 30.3499 16.0008 30.3308ZM16.0008 3.66413C15.2112 3.64736 14.4291 3.82115 13.7208 4.1708L6.60083 8.1308C5.90954 8.58013 5.33184 9.18361 4.91311 9.89384C4.49437 10.6041 4.246 11.4017 4.1875 12.2241V19.7575C4.24761 20.5813 4.49655 21.3802 4.91505 22.0924C5.33355 22.8045 5.91037 23.4107 6.60083 23.8641L13.7208 27.8241C14.434 28.16 15.2126 28.3341 16.0008 28.3341C16.7891 28.3341 17.5677 28.16 18.2808 27.8241L25.4008 23.8641C26.0924 23.412 26.6701 22.806 27.0887 22.0936C27.5074 21.3812 27.7557 20.5817 27.8142 19.7575V12.2241C27.7541 11.4003 27.5051 10.6014 27.0866 9.88924C26.6681 9.1771 26.0913 8.57085 25.4008 8.11747L18.2808 4.15747C17.5693 3.81853 16.7888 3.64964 16.0008 3.66413Z" fill="#34404E"/>
</svg>
