<svg width="32" height="32" viewBox="0 0 32 32" fill="none" xmlns="http://www.w3.org/2000/svg">
<path d="M29.3327 12.3359H2.66602C2.40134 12.3342 2.148 12.2283 1.96084 12.0411C1.77368 11.854 1.66776 11.6006 1.66602 11.3359C1.66776 11.0713 1.77368 10.8179 1.96084 10.6308C2.148 10.4436 2.40134 10.3377 2.66602 10.3359H29.3327C29.5974 10.3377 29.8507 10.4436 30.0379 10.6308C30.225 10.8179 30.3309 11.0713 30.3327 11.3359C30.3309 11.6006 30.225 11.854 30.0379 12.0411C29.8507 12.2283 29.5974 12.3342 29.3327 12.3359Z" fill="#34404E"/>
<path d="M10.6667 23H8C7.73532 22.9983 7.48198 22.8923 7.29482 22.7052C7.10766 22.518 7.00175 22.2647 7 22C7.00175 21.7353 7.10766 21.482 7.29482 21.2948C7.48198 21.1077 7.73532 21.0017 8 21H10.6667C10.9313 21.0017 11.1847 21.1077 11.3718 21.2948C11.559 21.482 11.6649 21.7353 11.6667 22C11.6649 22.2647 11.559 22.518 11.3718 22.7052C11.1847 22.8923 10.9313 22.9983 10.6667 23Z" fill="#34404E"/>
<path d="M19.3333 23H14C13.7353 22.9983 13.482 22.8923 13.2948 22.7052C13.1077 22.518 13.0017 22.2647 13 22C13.0017 21.7353 13.1077 21.482 13.2948 21.2948C13.482 21.1077 13.7353 21.0017 14 21H19.3333C19.598 21.0017 19.8514 21.1077 20.0385 21.2948C20.2257 21.482 20.3316 21.7353 20.3333 22C20.3316 22.2647 20.2257 22.518 20.0385 22.7052C19.8514 22.8923 19.598 22.9983 19.3333 23Z" fill="#34404E"/>
<path d="M23.4127 28.3307H8.58602C3.27935 28.3307 1.66602 26.7307 1.66602 21.4774V10.5174C1.66602 5.26406 3.27935 3.66406 8.58602 3.66406H23.3993C28.706 3.66406 30.3193 5.26406 30.3193 10.5174V21.4641C30.3327 26.7307 28.7193 28.3307 23.4127 28.3307ZM8.58602 5.66406C4.39935 5.66406 3.66602 6.38406 3.66602 10.5174V21.4641C3.66602 25.5974 4.39935 26.3174 8.58602 26.3174H23.3993C27.586 26.3174 28.3193 25.5974 28.3193 21.4641V10.5174C28.3193 6.38406 27.586 5.66406 23.3993 5.66406H8.58602Z" fill="#34404E"/>
</svg>
