<svg width="202" height="44" viewBox="0 0 202 44" fill="none" xmlns="http://www.w3.org/2000/svg">
<path d="M117.664 38.7911C116.742 38.0436 116.434 37.561 116.348 37.2772H118.865V36.0661H116.329L116.588 34.4766L114.993 34.7888L115.166 36.0661H112.861V37.2772H115.224C115.301 37.7408 115.695 38.3464 116.396 39.0938C117.117 39.8602 117.482 40.532 117.482 41.1186V41.5917C117.482 42.0648 117.357 42.4622 117.107 42.7933C116.876 43.115 116.463 43.2664 115.877 43.2664C115.455 43.2664 115.08 43.1055 114.753 42.8122C114.446 42.5284 114.292 42.0932 114.292 41.5255V41.1186C114.292 40.4752 114.475 40.0116 114.849 39.6899L115.013 39.548L114.427 38.9614L114.34 38.9992C113.178 39.5669 112.582 40.2671 112.582 41.0618V41.5822C112.582 42.1783 112.909 42.7271 113.552 43.238C114.177 43.73 114.955 43.976 115.868 43.9855C116.886 43.976 117.664 43.7395 118.25 43.2853C118.846 42.8122 119.153 42.2162 119.153 41.5065V41.147C119.153 40.3522 118.663 39.5669 117.655 38.7721L117.664 38.7911Z" fill="#373435"/>
<path d="M122.126 41.2243V40.5809C122.117 40.0321 122.27 39.5495 122.597 39.1143C122.914 38.6885 123.394 38.4709 124.019 38.4709H124.499C124.941 38.4709 125.345 38.6885 125.69 39.1143C126.056 39.5306 126.238 39.9753 126.238 40.4106V41.2432C126.238 41.7257 126.075 42.1893 125.758 42.6246C125.45 43.0503 124.941 43.2585 124.23 43.2585H124.173C123.49 43.2585 122.991 43.0503 122.635 42.6151C122.28 42.1799 122.107 41.7352 122.117 41.2243H122.126ZM126.853 38.5372C126.344 38.1587 125.854 37.9032 125.412 37.7897C126.065 37.2409 126.382 36.7868 126.382 36.3515C126.382 35.7649 126.123 35.3202 125.594 35.0458C125.114 34.7714 124.509 34.6484 123.798 34.6484C123.029 34.6484 122.414 34.7714 121.915 35.0364C121.386 35.3107 121.117 35.6987 121.117 36.1718V36.9098H122.703V36.1718C122.703 35.7176 123.154 35.3864 123.779 35.3864C124.451 35.3864 124.797 35.7365 124.797 36.4461C124.797 36.9855 124.653 37.4207 124.374 37.7235H124.355C123.164 37.7235 122.203 38.0168 121.511 38.5845C120.791 39.1805 120.426 39.8523 120.426 40.5525V41.3189C120.426 41.9812 120.8 42.5962 121.54 43.1639C122.27 43.7127 123.125 43.9776 124.163 43.9965C125.172 43.9965 126.056 43.76 126.786 43.2963C127.554 42.7949 127.948 42.142 127.948 41.3283V40.5525C127.948 39.7482 127.583 39.067 126.863 38.5466L126.853 38.5372Z" fill="#373435"/>
<path d="M135.112 34.9961C134.67 34.7879 134.228 34.6933 133.767 34.6933C133.171 34.6933 132.681 34.9488 132.307 35.4692C131.999 34.9488 131.605 34.6933 131.135 34.6933C130.798 34.6933 130.577 34.7312 130.433 34.8163C130.366 34.8542 130.232 34.9015 129.972 34.9015C129.761 34.9015 129.559 34.8352 129.348 34.7122L129.117 34.5703V36.491L129.943 36.5099C130.184 36.5099 130.51 36.3964 130.722 35.8476C130.846 35.5354 131.01 35.3935 131.212 35.3935C131.413 35.3935 131.625 35.4786 131.625 36.0842V38.7523H132.931V36.0842C132.931 35.6016 133.095 35.3935 133.488 35.3935C133.834 35.3935 134.074 35.4692 134.18 35.6016C134.238 35.6679 134.257 35.7719 134.257 35.9139V41.3732C134.257 42.7168 133.805 43.2655 132.691 43.2655C131.577 43.2655 130.952 42.6032 130.952 41.5814V40.9947C130.952 40.5311 131.029 40.2 131.192 39.9918L131.298 39.8404L130.808 39.3673L130.722 39.3957C129.742 39.8215 129.261 40.4365 129.261 41.2407V41.5624C129.261 42.3478 129.598 42.9628 130.27 43.3885C130.904 43.7954 131.721 44.0035 132.681 44.0035C133.815 44.0035 134.593 43.767 135.074 43.2655C135.554 42.7641 135.804 42.1396 135.804 41.4016V36.1693C135.804 35.6206 135.554 35.2137 135.083 35.015L135.112 34.9961Z" fill="#373435"/>
<path d="M141.752 37.7436C141.752 38.2829 141.656 38.7465 141.464 39.0871C141.282 39.4088 140.897 39.5697 140.302 39.5697C139.677 39.5697 139.274 39.4088 139.11 39.0871C138.937 38.756 138.851 38.2924 138.851 37.7341V37.2327C138.851 36.4947 138.976 35.9932 139.216 35.7567C139.475 35.5012 139.812 35.3782 140.244 35.3782H140.359C140.782 35.3782 141.128 35.5012 141.378 35.7567C141.627 35.9932 141.752 36.5231 141.752 37.2894V37.7436ZM146.988 35.3593C146.479 34.9146 145.797 34.6875 144.98 34.6875C144.164 34.6875 143.443 34.9997 142.924 35.6147C142.492 34.9997 141.627 34.6875 140.331 34.6875C138.198 34.6875 137.16 35.539 137.16 37.2989V37.7531C137.16 38.5289 137.448 39.1628 138.015 39.6454C138.563 40.109 139.322 40.3455 140.292 40.3455C141.262 40.3455 141.993 40.1185 142.55 39.6454C143.126 39.1818 143.424 38.5478 143.434 37.7625V36.6177C143.424 36.2865 143.578 36.0216 143.876 35.7756C144.202 35.5201 144.558 35.3877 144.942 35.3877C145.653 35.3877 146.076 36.0027 146.076 37.034V37.4503C146.076 37.9044 145.989 38.2924 145.816 38.633C145.653 38.9358 145.403 39.0777 145.038 39.0777H143.76V40.0522H144.903C145.24 40.0522 145.701 40.1658 145.701 41.2065V41.7459C145.701 42.0865 145.509 42.4271 145.105 42.7488C144.702 43.0894 144.087 43.2597 143.29 43.2597C142.607 43.2597 142.041 43.0894 141.589 42.7393C141.157 42.3987 140.945 41.9635 140.945 41.4242V41.2444H139.312V41.4242C139.312 43.0799 140.724 43.9883 143.29 43.9883C144.673 43.9883 145.662 43.7706 146.325 43.3354C147.027 42.8907 147.382 42.3419 147.382 41.7459V41.3863C147.382 40.5442 146.873 39.9292 145.874 39.5602C147.123 39.0115 147.766 38.2451 147.766 37.2611V37.0813C147.766 36.4 147.497 35.8229 146.979 35.3687L146.988 35.3593Z" fill="#373435"/>
<path d="M154.723 35.3976C154.175 34.8961 153.368 34.6406 152.321 34.6406C151.341 34.6406 150.543 34.8866 149.957 35.3881C149.352 35.9179 149.035 36.9114 149.035 38.3685V39.9107C149.035 41.6138 149.66 42.9763 150.899 43.9508L150.937 43.9887H152.004L151.764 43.6765C151.072 42.7776 150.726 41.6233 150.726 40.2324V38.4158C150.726 37.1858 150.851 36.3626 151.12 35.9652C151.379 35.5773 151.773 35.3881 152.311 35.3881C152.792 35.3881 153.176 35.5868 153.454 35.9747C153.647 36.2396 153.887 36.883 153.887 38.4253V40.2514C153.887 41.6517 153.56 42.7681 152.907 43.6859L152.686 43.9887H153.695L153.733 43.9508C154.953 42.9763 155.578 41.6138 155.578 39.9107V38.4158C155.578 36.9303 155.28 35.9179 154.713 35.3976H154.723Z" fill="#373435"/>
<path d="M185.987 39.7245H159.75V38.75H185.987V39.7245Z" fill="#373435"/>
<path d="M108.139 39.7245H81.9023V38.75H108.139V39.7245Z" fill="#373435"/>
<path d="M138.496 1.16864C138.496 0.667177 138.909 0.15625 139.514 0.15625H141.695C142.848 0.15625 142.848 1.29164 142.752 2.04857V17.0831C142.752 19.3255 144.567 21.1799 146.844 21.1799H149.342C150.754 21.1799 152.119 20.2338 152.666 18.9375C152.955 18.2752 152.955 14.5284 152.955 13.7999V13.4498C152.955 12.8537 153.406 12.3712 154.011 12.3712H156.182C156.788 12.3712 157.182 12.8537 157.182 13.4498V13.7999C157.182 14.5284 157.153 18.3415 157.018 19.0605C156.413 22.6843 153.079 25.3714 149.333 25.3714H146.835C142.223 25.3714 138.477 21.6246 138.477 17.0831V1.16864H138.496Z" fill="#373435"/>
<path d="M124.229 0.0546875H121.693C117.888 0.0546875 114.507 2.77963 113.882 6.46019C113.757 7.1982 113.719 7.80374 113.719 8.54175V8.89182C113.719 9.49737 114.113 9.97991 114.728 9.97991H116.937C117.552 9.97991 118.013 9.49737 118.013 8.89182V8.54175C118.013 7.80374 118.013 7.25497 118.301 6.58319C118.859 5.26803 120.252 4.31241 121.683 4.31241H124.219C126.535 4.31241 128.389 6.20473 128.389 8.47551V13.6794C128.331 14.02 128.35 14.3796 128.389 14.6823V14.8432C128.35 15.1554 128.331 15.5149 128.389 15.8461V17.2559C128.389 19.5361 126.535 21.419 124.219 21.419H121.683C120.252 21.419 118.849 20.4539 118.301 19.1387C118.013 18.4575 118.013 17.9277 118.013 17.1896V16.8301C118.013 16.2246 117.552 15.742 116.937 15.742H114.728C114.113 15.742 113.719 16.2246 113.719 16.8301V17.1896C113.719 17.9277 113.757 18.5237 113.882 19.2617C114.497 22.9518 117.879 25.6672 121.693 25.6672H124.229C128.908 25.6672 132.722 21.8542 132.722 17.237V8.47551C132.722 3.86771 128.917 0.0546875 124.229 0.0546875Z" fill="#373435"/>
<path d="M105.608 14.7103C104.465 13.9817 103.696 13.4613 103.072 13.1113L94.56 8.47508V1.34103C94.56 0.707105 94.5312 0.101562 93.532 0.101562H91.3224C90.7075 0.101562 90.3136 0.612489 90.3136 1.12342V24.4273C90.304 25.0613 90.3328 25.6668 91.3416 25.6668H93.5512C94.1757 25.6668 94.56 25.1559 94.56 24.645V13.2627C96.2316 14.1237 98.1723 15.1455 99.8343 16.139C100.612 16.5553 102.553 17.8042 102.909 18.3151C103.447 19.0342 103.36 20.0182 103.36 20.0182V24.2287C103.36 24.9667 103.389 25.6574 104.551 25.6574H107.097C107.808 25.6574 108.26 25.0707 108.26 24.4747V20.0088C108.26 20.0088 108.519 16.5648 105.589 14.6914L105.608 14.7103Z" fill="#373435"/>
<path d="M180.581 16.1199V15.3251V11.408C180.581 11.408 180.811 7.51931 178.554 6.1663C177.401 5.48507 176.661 4.93629 176.056 4.59568L170.522 1.57743L168.322 0.356878C167.342 -0.182433 167.16 -0.172971 166.593 0.820497L165.747 2.30597C165.44 2.85474 165.123 3.40351 166.045 3.91444L166.132 3.96175L168.312 5.07822C169.792 5.85407 171.425 6.734 172.857 7.58554C173.625 7.99239 175.547 9.23186 175.892 9.73333C176.43 10.4524 176.344 11.4175 176.344 11.4175V15.3346V17.085C176.344 19.3274 174.519 21.1819 172.251 21.1819H169.753C168.351 21.1819 166.967 20.2357 166.429 18.9395C166.141 18.2772 166.141 14.5304 166.141 13.8018V13.4517C166.141 12.8557 165.69 12.3731 165.084 12.3731H162.904C162.298 12.3731 161.914 12.8557 161.914 13.4517V13.8018C161.914 14.5304 161.943 18.3434 162.077 19.0625C162.683 22.6863 166.016 25.3734 169.753 25.3734H172.251C176.863 25.3734 180.6 21.6266 180.6 17.085V16.4794C180.61 16.3754 180.6 16.2524 180.6 16.1294L180.581 16.1199Z" fill="#373435"/>
<path d="M70.1523 12.4119V4.38845H77.4825C78.155 4.38845 78.5969 4.73853 78.7603 5.42923C78.9236 6.08208 78.7987 6.78224 78.376 7.44455C78.0205 7.94601 76.0991 9.18548 75.3401 9.58287C73.7069 10.5574 71.7951 11.5698 70.1619 12.4214H70.1523V12.4119ZM81.652 21.1733H76.1856C73.5148 21.1733 71.2091 19.3756 70.4693 16.9818L78.5297 12.5822C79.1349 12.2321 79.9131 11.7307 81.0275 11.0021C85.2547 8.22986 84.659 0.1875 77.7035 0.1875H66.9435C66.3383 0.1875 65.8867 0.698427 65.8867 1.19043L65.9251 14.5313H65.9348V15.3166C65.9348 20.8422 70.5462 25.3837 76.1856 25.3837H81.8826C82.9298 25.3743 82.9298 24.7404 82.9298 24.097V22.3844C82.9298 21.2396 82.7664 21.145 81.6424 21.145L81.652 21.1733Z" fill="#373435"/>
<path d="M200.287 15.2994C202.747 12.7637 202.189 8.08021 199.154 6.09327C198.03 5.36473 197.251 4.8538 196.637 4.51318L188.384 0V0.0567696C187.913 -0.104078 187.702 0.0851545 187.289 0.823159L186.443 2.30863C186.126 2.8574 185.819 3.40618 186.741 3.9171L186.837 3.96441L188.384 4.74972V4.76865C189.988 5.60127 191.833 6.57581 193.418 7.52197C194.187 7.92882 196.118 9.16829 196.483 9.67922C196.906 10.351 197.03 11.0512 196.867 11.7135C196.713 12.3758 196.55 13.3503 194.946 13.4639H192.304C192.14 13.4639 192.006 13.4639 191.881 13.4733H191.833C191.324 13.5301 191.228 13.7288 191.228 14.4857V15.9144C191.228 16.378 191.228 16.8417 191.833 16.9457C191.833 16.9457 194.34 16.9741 194.946 16.9741C196.233 16.9741 196.723 17.6743 196.896 17.9203C197.319 18.5826 197.184 19.4247 197.021 20.087C196.858 20.7871 196.291 21.1372 195.733 21.1372H186.549C185.425 21.1372 185.262 21.2224 185.262 22.3672V24.0798C185.262 24.7137 185.262 25.3476 186.318 25.3571H186.559H195.964C202.382 25.3571 203.429 18.5731 200.297 15.2805L200.287 15.2994Z" fill="#373435"/>
<path d="M52.6113 13.3219C51.8812 10.6348 50.6995 8.28836 49.0759 6.26358C47.4427 4.2388 45.3868 2.69656 42.9081 1.60847C40.4199 0.539311 37.1535 0 33.1089 0H12.6073V10.72C17.2187 14.1072 22.2048 15.7536 26.4031 16.5294V9.96307H29.852C33.4259 9.96307 35.991 10.8241 37.5281 12.5366C39.0749 14.2586 39.8435 17.4472 39.8435 22.1118C39.8435 25.6315 39.4976 28.1767 38.8059 29.7473C38.1142 31.3179 37.1631 32.4155 35.943 33.0494C34.7229 33.6738 32.6669 33.9955 29.7848 33.9955H26.4031V31.5828C21.8013 32.4344 17.5741 32.7277 15.3837 32.7277C14.4038 32.7277 13.4815 32.6898 12.5977 32.6331V43.987H33.0993C35.5587 43.987 38.2967 43.5896 41.323 42.7854C43.5326 42.2082 45.6077 41.0444 47.5388 39.294C49.4698 37.5436 50.9781 35.3769 52.0637 32.775C53.1493 30.1825 53.6969 26.5398 53.6969 21.8374C53.6969 18.8381 53.3319 15.9996 52.6017 13.3125L52.6113 13.3219Z" fill="#307ABD"/>
<path d="M0.03125 7.59375V12.9679C8.30298 22.562 18.8036 24.7192 26.4508 24.7192C31.7444 24.7192 35.4527 23.6879 35.4911 23.669L35.7025 23.6122C35.7025 23.2338 35.6929 22.8459 35.6929 22.4674C35.299 22.5336 33.2719 22.8553 30.2745 22.8553C22.7329 22.8553 9.09077 20.8116 0.03125 7.59375Z" fill="#307ABD"/>
<path d="M35.4044 25.9029L35.7598 25.7704C35.7598 25.5528 35.7406 25.1554 35.7214 24.6445C35.2891 24.758 31.6192 25.7136 26.4409 25.7136C19.0146 25.7136 8.49481 23.7172 0.0117188 14.4922V19.2041C7.83192 26.2624 16.6224 27.8993 22.9631 27.8993C30.0916 27.8993 35.3467 25.9313 35.4044 25.9029Z" fill="#307ABD"/>
<path d="M30.2745 21.8563C33.4736 21.8563 35.568 21.4778 35.5872 21.4778L35.6929 21.4589C35.7025 20.9007 35.7217 20.3992 35.7697 20.0775C35.7794 20.0681 11.0122 22.7173 0.0504642 0L0.03125 5.76212C8.79294 19.7274 22.6656 21.8468 30.2649 21.8468L30.2745 21.8563Z" fill="#307ABD"/>
<path d="M24.7864 28.8603C24.1907 28.8887 23.5951 28.9076 22.9706 28.9076C16.1688 28.9076 7.66648 27.1572 0 20.5625V25.861C1.20089 26.7504 8.91541 31.7272 24.7864 28.8603Z" fill="#307ABD"/>
</svg>
