<svg width="32" height="32" viewBox="0 0 32 32" fill="none" xmlns="http://www.w3.org/2000/svg">
<path d="M20.0122 29.8318L20.0122 29.8317H20.0004H12.0004V29.8315L11.9887 29.8318C10.5326 29.8659 9.07924 29.6885 7.67412 29.305C7.56448 29.27 7.46941 29.1997 7.40374 29.105C7.3378 29.01 7.30529 28.8957 7.31124 28.7803C7.62201 25.128 11.3702 22.125 16.0004 22.125C20.6326 22.125 24.3709 25.1178 24.689 28.7882L24.6892 28.7912C24.6998 28.9045 24.67 29.0179 24.6053 29.1114C24.5405 29.205 24.4448 29.2727 24.3351 29.3027C22.9274 29.6878 21.4712 29.866 20.0122 29.8318ZM8.47846 27.9453L8.33295 28.4724L8.871 28.5703C9.90441 28.7582 10.9536 28.8457 12.0038 28.8317H19.9971C21.0473 28.8457 22.0965 28.7582 23.1299 28.5703L23.6679 28.4724L23.5224 27.9453C22.7383 25.1049 19.5651 23.125 16.0004 23.125C12.4358 23.125 9.26253 25.1049 8.47846 27.9453Z" fill="#34404E" stroke="#34404E"/>
<path d="M19.9993 2.66406H11.9993C5.33268 2.66406 2.66602 5.33073 2.66602 11.9974V19.9974C2.66602 25.0374 4.18602 27.7974 7.81268 28.8241C8.10602 25.3574 11.666 22.6241 15.9993 22.6241C20.3327 22.6241 23.8927 25.3574 24.186 28.8241C27.8127 27.7974 29.3327 25.0374 29.3327 19.9974V11.9974C29.3327 5.33073 26.666 2.66406 19.9993 2.66406ZM15.9993 18.8907C15.054 18.892 14.1294 18.613 13.3426 18.0889C12.5558 17.5647 11.9421 16.819 11.5791 15.9461C11.2161 15.0732 11.1201 14.1122 11.3032 13.1847C11.4864 12.2573 11.9404 11.4049 12.608 10.7355C13.2756 10.0661 14.1266 9.60962 15.0536 9.42389C15.9806 9.23816 16.9418 9.33147 17.8157 9.69204C18.6897 10.0526 19.4371 10.6642 19.9634 11.4496C20.4897 12.2349 20.7714 13.1587 20.7727 14.1041C20.7736 14.7318 20.6508 15.3535 20.4114 15.9338C20.172 16.5141 19.8206 17.0415 19.3774 17.486C18.9341 17.9305 18.4077 18.2833 17.8281 18.5243C17.2485 18.7654 16.6271 18.8899 15.9993 18.8907Z" stroke="#34404E" stroke-width="1.5" stroke-linecap="round" stroke-linejoin="round"/>
<path d="M13.6198 10.5541C14.3247 10.0844 15.1532 9.83448 16.0003 9.83594L13.6198 10.5541ZM13.6198 10.5541C12.9148 11.0238 12.365 11.6922 12.0401 12.4746M13.6198 10.5541L12.0401 12.4746M12.0401 12.4746C11.7153 13.2569 11.6299 14.1181 11.7948 14.9491M12.0401 12.4746L11.7948 14.9491M11.7948 14.9491C11.9597 15.78 12.3675 16.5433 12.9665 17.1423M11.7948 14.9491L12.9665 17.1423M12.9665 17.1423C13.5655 17.7414 14.3288 18.1492 15.1598 18.3141M12.9665 17.1423L15.1598 18.3141M15.1598 18.3141C15.9907 18.479 16.8519 18.3936 17.6343 18.0687M15.1598 18.3141L17.6343 18.0687M17.6343 18.0687C18.4166 17.7438 19.085 17.1941 19.5547 16.4891M17.6343 18.0687L19.5547 16.4891M19.5547 16.4891C20.0244 15.7841 20.2744 14.9555 20.2729 14.1084M19.5547 16.4891L20.2729 14.1084M20.2729 14.1084C20.2712 12.9758 19.8206 11.89 19.0197 11.0891M20.2729 14.1084C20.2729 14.1084 20.2729 14.1085 20.2729 14.1086L19.7729 14.1093L19.0197 11.0891M19.0197 11.0891C18.2188 10.2882 17.1331 9.83758 16.0004 9.83594L19.0197 11.0891ZM15.9987 19.3959C14.9545 19.3971 13.9334 19.0886 13.0645 18.5095C12.1956 17.9303 11.5179 17.1065 11.1171 16.1421C10.7164 15.1778 10.6106 14.1163 10.8132 13.0918C11.0157 12.0674 11.5175 11.126 12.2551 10.3867C12.9926 9.64745 13.9329 9.1435 14.9568 8.93859C15.9808 8.73367 17.0426 8.83701 18.0078 9.23553C18.9731 9.63405 19.7985 10.3098 20.3797 11.1775C20.9608 12.0451 21.2717 13.0656 21.2729 14.1098C21.2727 15.5096 20.7174 16.8523 19.7288 17.8432C18.74 18.8342 17.3986 19.3926 15.9987 19.3959Z" fill="#34404E" stroke="#34404E"/>
</svg>
